#!OML:ASF F:\VICON\USERDATA\INSTALL\rory3\rory3.ASF
:FULLY-SPECIFIED
:DEGREES
138
root -0.03584818256469155 17.412113146176196 61.63972096847167 1.6360365312618312 -2.6540195315802944 -0.8001880798392493
lfemur -8.724216379062904 -2.2994139746448305 -19.422730217577694
ltibia 60.29133351195244
lfoot -7.390010895374687 1.773533237923238
ltoes -2.481960134902956
rfemur -25.52154427308447 3.4638947950202947 25.881577901654378
rtibia 57.08039616018728
rfoot 8.074995434332529 -11.680174689673922
rtoes 11.752865824192728
lowerback 12.642898058905486 -0.3275880106080344 0.8316753820099161
upperback -0.5206365445471893 -0.24127171612854115 2.1368958967041576
thorax -7.317283326914653 -0.16090550446617358 2.0984346689187645
lowerneck -16.844283540859514 -3.1480065906446963 -3.113731184935082
upperneck 19.354668463998514 -3.5140517382163554 2.093009225080962
head 8.663425181807504 -1.7107505769746931 1.1847050113643698
lclavicle -1.6760845563645424e-15 -3.5925186214957076e-15
lhumerus -44.41811631480577 -3.681233419832903 88.12729700781321
lradius 67.25113491931421
lwrist 12.108115176571403
lhand -28.158274377252834 11.136183549818082
lfingers 7.125019999999999
lthumb -1.5631016876690935 41.06450207273401
rclavicle -1.6784864748025663e-15 -3.594201717066577e-15
rhumerus -38.67799163314715 -7.480264730284101 -84.3600423770714
rradius 55.60720911004345
rwrist 0.5560013399185646
rhand -18.398681311782184 29.33896805752547
rfingers 7.125019999999999
rthumb 7.17365710327669 0.3850516795139558
139
root -0.04955404492177147 17.378300790351172 61.66520980056424 1.6533589429985496 -2.913090579987972 -1.0530388001071405
lfemur -9.194296250509701 -1.9206999544272738 -18.982023336088723
ltibia 60.915536079489655
lfoot -7.920434814142764 1.557179411383732
ltoes -1.80155642646774
rfemur -25.9551572243303 3.8339214546072253 26.19999891817311
rtibia 59.03759179734468
rfoot 5.954404778983503 -13.209368341321024
rtoes 12.11178966152379
lowerback 12.792204211194788 -0.21591247658454976 0.9671643775439818
upperback -0.5354895179064638 -0.05473674716715238 2.226310971827022
thorax -7.3831794111179185 -0.05553072953099053 2.079638024458876
lowerneck -16.887543226641355 -3.1358687125532057 -3.0724426423992934
upperneck 19.34914642619807 -3.506972945570008 2.003894187658866
head 8.648448662522629 -1.7173010091336374 1.1514930658577878
lclavicle -1.6765801748998432e-15 -3.5928721041599996e-15
lhumerus -43.5645159914848 -3.820062586236641 88.22333679895517
lradius 67.19455614089132
lwrist 12.317271827696196
lhand -28.281764466852202 11.416558725565384
lfingers 7.125019999999999
lthumb -1.638518026996896 41.43402937447335
rclavicle -1.6785694880737786e-15 -3.594260407754885e-15
rhumerus -38.3348267173743 -7.210196459934782 -84.40640508525432
rradius 55.96404218905617
rwrist 0.001977784576402186
rhand -18.417730359032014 29.23888047324283
rfingers 7.125019999999999
rthumb 7.069040986085413 0.20576020953861596
140
root -0.0659259995672826 17.345466898408358 61.6043586156488 1.7244765290175454 -3.1306402436046534 -1.8595373245141318
lfemur -10.189324515685623 -1.5277732358170946 -17.837071899601682
ltibia 61.81990390843713
lfoot -8.455382573166665 1.2920434040925448
ltoes -1.5305922122838957
rfemur -25.968560105225883 4.490214908045144 27.175345905818453
rtibia 60.18394839072322
rfoot 4.675067594511457 -13.428625181105257
rtoes 10.509623570228289
lowerback 12.93184072226883 -0.12953019125690107 1.6084280190506628
upperback -0.523162343028714 0.2119822658706625 2.4604100546992558
thorax -7.449633543658425 0.07124253324194824 1.8542691860787974
lowerneck -16.959803043023463 -3.1352851502115575 -3.005543369796496
upperneck 19.427125375470307 -3.5010246616521448 1.9495453347716167
head 8.703854455079611 -1.7124108259006432 1.1179852323415251
lclavicle -1.6755171423258848e-15 -3.592117538451489e-15
lhumerus -42.55958213260213 -4.115821877915104 88.33266719056695
lradius 67.23707112408427
lwrist 12.151486199228604
lhand -28.308605536893108 11.777859995397424
lfingers 7.125019999999999
lthumb -1.6346757058643346 41.787111272140606
rclavicle -1.6789941965169085e-15 -3.59456076779502e-15
rhumerus -37.97382042229863 -6.983309578780828 -84.65018332122223
rradius 56.4142014326133
rwrist -0.5952673237853743
rhand -18.474899508537263 29.15294138963404
rfingers 7.125019999999999
rthumb 7.060390160485387 0.10677378992874681
141
root -0.07401593626160058 17.329458554064075 61.46516593931151 1.9026677901108322 -3.130327872142413 -2.600429450960066
lfemur -11.8291904264246 -1.2736202283376663 -16.73907056224968
ltibia 62.918901777674165
lfoot -8.613550793906475 1.0766434526781365
ltoes -1.8616384573684757
rfemur -25.73148160784127 5.01432200481656 28.02102135887197
rtibia 60.47767630209105
rfoot 3.693618499541717 -13.268263724304155
rtoes 7.77068177547625
lowerback 12.924869296853803 -0.10988478172212318 2.2203786124618716
upperback -0.5382260005738818 0.35045763505513516 2.687331368573803
thorax -7.461155278316494 0.12667498749560335 1.572377749618691
lowerneck -17.058589027845272 -3.119031782671487 -2.928991673471587
upperneck 19.435420452466005 -3.4919385600153063 1.9048321157774004
head 8.732572393811767 -1.6982629397673712 1.0964013871500737
lclavicle -1.6753439173629378e-15 -3.5919906378472444e-15
lhumerus -41.5033657877749 -4.410744746845838 88.48469097190399
lradius 67.48752866054537
lwrist 11.364410502803182
lhand -28.181771627687475 12.110830162291931
lfingers 7.125019999999999
lthumb -1.4988850492065875 42.12016302496603
rclavicle -1.6794621266911897e-15 -3.594891642769299e-15
rhumerus -37.566767770818345 -6.606066417463491 -84.91263328529531
rradius 56.87044705759977
rwrist -1.2005103615000503
rhand -18.542667581619522 29.113292035920075
rfingers 7.125019999999999
rthumb 7.008903517234559 -0.13437526085413548
142
root -0.0955374062680883 17.32934303437196 61.186508501125026 1.9191949021712962 -2.9752122533965117 -2.533863514362642
lfemur -13.629265634127016 -1.2181675650994164 -16.62383681769432
ltibia 63.745166514147826
lfoot -8.2259561832096 0.9899732724336126
ltoes -2.6866913828666235
rfemur -25.250365682735005 5.2963259561842175 27.993794381830114
rtibia 60.091167074427815
rfoot 2.7025908690509057 -13.22816232802548
rtoes 6.519222197207399
lowerback 13.029613954404375 -0.07143746847771781 2.1128094253925127
upperback -0.5020513758091399 0.38908501067003765 2.6975160236455205
thorax -7.574926852352481 0.15186610068445813 1.5195691266499793
lowerneck -17.084295498196067 -3.1046146892720468 -2.856444848152396
upperneck 19.318969408208762 -3.4957506528838502 1.9302510923256693
head 8.69916705810453 -1.6923228043636156 1.1038524094890931
lclavicle -1.6757092449626807e-15 -3.592248173879336e-15
lhumerus -40.61595121487568 -4.805600456883628 88.66975604282834
lradius 68.12624994111573
lwrist 10.866268656781195
lhand -28.074743419727724 12.507219768290405
lfingers 7.125019999999999
lthumb -1.4038181875119873 42.5207254421536
rclavicle -1.6788832720132635e-15 -3.594482285492254e-15
rhumerus -37.11446276356822 -6.138819571094921 -85.14209926488493
rradius 57.2707146944142
rwrist -1.3983690910259021
rhand -18.677919302292885 29.031562742106605
rfingers 7.125019999999999
rthumb 6.9262429061013915 -0.41922080608768886
143
root -0.10429191649427283 17.33424046459108 60.96747472612518 2.2488485168781303 -2.954309622096061 -2.276269893643116
lfemur -15.321928281710752 -1.2058899175589095 -16.893599016178708
ltibia 63.71493610718898
lfoot -7.615897293523293 0.7051274679346378
ltoes -3.9009386933800356
rfemur -24.846298246488494 5.4574783919014935 27.76068987759053
rtibia 59.44028227130903
rfoot 1.7581396178183057 -13.335761997963377
rtoes 5.775342820731407
lowerback 12.806619522467372 0.011720460064073956 1.8475140413889304
upperback -0.5050947161489637 0.4502106145488357 2.5900115885764294
thorax -7.467116400410054 0.19551158686330994 1.4743368923834186
lowerneck -17.180673773817702 -3.099021032700996 -2.796248902793364
upperneck 19.240514673964988 -3.498083044127603 1.979219447545661
head 8.68220047979544 -1.6996129462950103 1.1159474933981977
lclavicle -1.6757567185806348e-15 -3.592285370642094e-15
lhumerus -39.882086036032426 -5.425731370844154 88.88892396254592
lradius 69.06063176199521
lwrist 12.515785570225102
lhand -28.28902717857511 12.815378553057835
lfingers 7.125019999999999
lthumb -1.6253302880699607 42.847812880372736
rclavicle -1.6775033721817312e-15 -3.593506517084439e-15
rhumerus -36.805831793431935 -5.778956606075853 -85.40840145698778
rradius 57.604501322277244
rwrist -1.0169088845115155
rhand -18.740177782437524 29.056304008331512
rfingers 7.125019999999999
rthumb 6.910386910084187 -0.443047173401797
144
root -0.14286843127912766 17.357618582445532 60.10594520416802 2.007238450556631 -1.6259213646130588 -1.9853640148891634
lfemur -16.778768388060836 -2.1157674374118454 -17.391057866965582
ltibia 63.119287424445375
lfoot -6.925343783707963 -0.03168783438716183
ltoes -5.942888736778524
rfemur -24.081015787204404 4.53302866176416 27.26833782213296
rtibia 58.46281816311779
rfoot 0.10920783496153019 -13.988325414255183
rtoes 4.733408638458809
lowerback 13.041787337957771 -0.267014341297722 1.750643900381255
upperback -0.43857496868197493 0.06976937590997723 2.504774236502025
thorax -7.652733527576846 -0.0005367768444412002 1.4990827618901164
lowerneck -17.136222317329025 -3.1274528376299267 -2.752091491695668
upperneck 19.162266227728463 -3.563820149955987 2.0721843040845855
head 8.666219692575488 -1.7254653511800369 1.1317921911539501
lclavicle -1.6757108735106521e-15 -3.592255181466664e-15
lhumerus -39.31788970449738 -6.176832402180791 89.08128700854648
lradius 70.33838057749081
lwrist 14.132725538149076
lhand -28.577648114634332 13.095404338029475
lfingers 7.125019999999999
lthumb -2.033091638811147 43.08761535446981
rclavicle -1.6765031899205106e-15 -3.592799321044252e-15
rhumerus -36.58297051356687 -5.641299249600628 -85.59691007102552
rradius 57.851597581335156
rwrist -0.6034478301612398
rhand -18.698747163746162 29.19066549152249
rfingers 7.125019999999999
rthumb 6.9760459261315 -0.32612785450767007
145
root -0.1756088176991102 17.39206489998388 60.29833534839785 2.061116625766731 -1.5622538285180765 -2.124018594558384
lfemur -18.019840368671574 -2.193160804177208 -17.202115751816144
ltibia 61.545171970098934
lfoot -6.13200646101139 -0.886608944051468
ltoes -7.753535109710181
rfemur -23.480700694667707 4.757067691713057 27.394375498425063
rtibia 57.31864564326437
rfoot -1.4362439846325514 -14.381983007982276
rtoes 4.131666816692816
lowerback 13.04195731953422 -0.21213291935301698 1.7346882637989438
upperback -0.4270824686662466 0.1379938477297361 2.4992868870378984
thorax -7.655372771595889 0.039434241526914826 1.4640340377883982
lowerneck -17.107082993695787 -3.15192424425332 -2.7577992111012457
upperneck 19.178977690025754 -3.6289745417089008 2.1620091658355607
head 8.691188376513 -1.7553814264208194 1.1543498058885093
lclavicle -1.6769952224816867e-15 -3.593168406467602e-15
lhumerus -38.90123248316952 -6.919993787919546 89.28410847310458
lradius 71.66550997290716
lwrist 15.612875265557022
lhand -28.77409040586358 13.048745440525844
lfingers 7.125019999999999
lthumb -2.258514511281512 43.0014338289588
rclavicle -1.676902043102238e-15 -3.593081326443134e-15
rhumerus -36.54190287187016 -5.580980317569134 -85.69230936641878
rradius 58.244618299366714
rwrist -0.4979346775247646
rhand -18.624898990242837 29.372488840451513
rfingers 7.125019999999999
rthumb 6.9663415399459465 -0.30118035016975525
